<?xml version="1.0" encoding="utf-8" ?>
<svg xmlns="http://www.w3.org/2000/svg" width="500" height="500" viewBox="700 340 480 500">
  <path fill="white" transform="scale(1.22095 1.22095)" d="M793.671 292.883C811.972 292 833.953 292.537 852.487 292.54L962.807 292.715C961.052 305.351 956.314 324.977 953.638 337.907L935.792 424.552C909.955 425.018 883.873 424.486 858.044 424.618C830.914 424.263 805.493 424.182 779.016 430.957C703.214 450.355 659.024 518.288 638.107 589.637C631.612 611.792 627.254 634.175 622.915 657.194C638.005 657.306 653.097 657.244 668.186 657.011C686.879 603.573 727.965 566.289 785.117 558.881C801.001 556.822 816.19 556.972 832.142 557.021C833.049 546.946 839.068 521.837 841.412 510.874C788.142 509.326 755.209 515.514 702.405 499.938C712.79 484.606 721.969 478.733 737.922 470.848C765.421 474.906 782.789 474.134 810.378 474.134L886.303 474.225L861.959 593.423C824.453 593.205 781.114 589.108 748.747 609.433C716.777 629.508 704.661 658.84 696.192 693.8L580.276 693.801C583.545 675.531 585.498 656.046 588.91 637.527C598.873 583.453 620.188 513.498 656.459 471.337C644.204 457.714 638.325 440.659 636.919 422.615C634.512 395.106 643.422 367.804 661.591 347.013C693.665 309.834 746.644 296.3 793.671 292.883ZM681.197 444.164C702.959 424.036 721.861 412.989 749.362 402.063C788.052 388.233 816.211 388.049 856.744 388.625C872.814 388.853 889.55 388.431 905.679 388.773C909.506 368.663 913.556 348.597 917.829 328.577L841.568 328.417C830.768 328.417 808.766 327.885 798.815 329.012C780.159 329.952 766.854 332.318 748.906 336.72C701.827 348.268 653.566 391.485 681.197 444.164Z"/>
</svg>
